<?xml version="1.0"?>
<svg xmlns="http://www.w3.org/2000/svg" id="Solid" viewBox="0 0 512 512" width="512" height="512"><rect x="216" y="448" width="32" height="32"/><path d="M464.24,448l-.019,0c-.409.057-.818.106-1.235.133a8,8,0,0,1-8.023-10.716A15.727,15.727,0,0,0,456,432a15.918,15.918,0,0,0-26.758-11.739,8,8,0,0,1-13.388-5.348A15.994,15.994,0,0,0,400,400a15.769,15.769,0,0,0-10.646,4.173,8,8,0,0,1-10.708,0A15.769,15.769,0,0,0,368,400a15.994,15.994,0,0,0-15.854,14.913,8,8,0,0,1-13.388,5.348A15.918,15.918,0,0,0,312,432a15.727,15.727,0,0,0,1.037,5.421,8,8,0,0,1-8.023,10.716c-.417-.027-.826-.076-1.235-.133l-.019,0a16,16,0,0,0,.24,32H464a16,16,0,0,0,.24-32ZM336,464a8,8,0,1,1,8-8A8,8,0,0,1,336,464Zm48-24a8,8,0,1,1,8-8A8,8,0,0,1,384,440Zm48,16a8,8,0,1,1,8-8A8,8,0,0,1,432,456Z"/><path d="M32,472a8,8,0,0,0,16,0V448H160v24a8,8,0,0,0,16,0V448h8a8,8,0,0,0,0-16H160V416h8a8,8,0,0,0,0-16h-8V384H48v16H40a8,8,0,0,0,0,16h8v16H24a8,8,0,0,0,0,16h8Z"/><path d="M144,472v-8H128v8a8,8,0,0,0,16,0Z"/><rect x="128" y="272" width="16" height="96"/><path d="M202.118,177.956a8,8,0,0,1-4.157-12.6A47.514,47.514,0,0,0,208,136a48.255,48.255,0,0,0-31.024-44.9,8,8,0,0,1-4.469-10.756,40,40,0,1,0-73.014,0A8,8,0,0,1,95.024,91.1,48.255,48.255,0,0,0,64,136a47.514,47.514,0,0,0,10.039,29.356,8,8,0,0,1-4.157,12.6A52,52,0,1,0,128,255.686V235.314L98.343,205.657a8,8,0,0,1,11.314-11.314L128,212.686V128a8,8,0,0,1,16,0v28.686l18.343-18.343a8,8,0,0,1,11.314,11.314L144,179.314v76.372a51.993,51.993,0,1,0,58.118-77.73Z"/><path d="M320,235.314l-29.657-29.657a8,8,0,0,1,11.314-11.314L320,212.686V128h0a8,8,0,0,1,16,0v28.686l18.343-18.343a8,8,0,0,1,11.314,11.314L336,179.314v76.372a51.993,51.993,0,1,0,58.118-77.73,8,8,0,0,1-4.157-12.6A47.514,47.514,0,0,0,400,136a48.255,48.255,0,0,0-31.024-44.9,8,8,0,0,1-4.469-10.756,40,40,0,1,0-73.014,0A8,8,0,0,1,287.024,91.1,48.255,48.255,0,0,0,256,136a47.514,47.514,0,0,0,10.039,29.356,8,8,0,0,1-4.157,12.6,51.851,51.851,0,0,0-19.016,9.985,67.729,67.729,0,0,1,.027,80.128A51.943,51.943,0,0,0,320,255.686Z"/><rect x="320" y="272" width="16" height="128"/></svg>
