<svg id="Capa_1" enable-background="new 0 0 512.015 512.015" height="512" viewBox="0 0 512.015 512.015" width="512" xmlns="http://www.w3.org/2000/svg"><g><path d="m512.005 207.864c-.003-4.982-.174-9.939-.5-14.864-22.677 0-408.214 0-420.419 0l-19.331-62.826c-7.46-24.243-30.796-41.174-56.748-41.174-8.284 0-15 6.716-15 15s6.716 15 15 15c12.702 0 24.509 8.41 28.074 19.996 24.838 80.722 22.426 72.92 22.74 73.842.483 1.411 3.001 8.442 28.213 79.036 9.212 25.795 38.193 43.126 72.115 43.126h51.701l-14.004 35.006c-43.632-7.358-82.839 26.452-82.839 69.994 0 39.384 31.892 72 71 72 34.373 0 62.655-25.039 69.419-57h53.163c2.814 13.296 9.34 25.589 19.086 35.575 27.894 28.583 72.764 28.591 100.666 0 13.327-13.656 20.667-31.617 20.667-50.575 0-43.549-39.215-77.35-82.839-69.994l-14.006-35.006h51.702c33.885 0 62.839-17.294 72.084-43.042 30.98-83.767 30.056-80.211 30.056-84.094zm-197.389 217.136h-53.218c-3.922-18.157-14.796-33.757-29.701-43.843l18.465-46.157h75.69l18.465 46.157c-14.905 10.086-25.78 25.686-29.701 43.843z"/><path d="m507.466 163c-18.504-90.344-93.795-163-187.459-163h-24c-6.465 0-12.203 4.142-14.237 10.279l-50.644 152.721z"/></g></svg>