<svg id="Layer_1" enable-background="new 0 0 512 512" height="512" viewBox="0 0 512 512" width="512" xmlns="http://www.w3.org/2000/svg"><g><path d="m422.952 459-2.582-21.848c-.13-1.097-1.124-1.881-2.221-1.751l-55.501 6.56c-1.007.119-1.765.979-1.765 1.993.001 48.133.033 44.687-.08 46.556l41.13-4.86c13.139-1.55 22.569-13.5 21.019-26.65z"/><path d="m363.116 425.793 53.154-6.282c1.097-.13 1.881-1.124 1.751-2.221l-1.409-11.919c-.13-1.097-1.124-1.881-2.221-1.751l-51.745 6.119c-1.007.119-1.765.972-1.765 1.986v12.082c.001 1.198 1.046 2.127 2.235 1.986z"/><path d="m363.116 393.572 49.398-5.841c1.097-.13 1.881-1.124 1.751-2.221l-26.093-220.77c-.86-7.28-4.92-13.68-11.15-17.56l-113.05-70.41c-6.419-4.001-14.022-4.678-20.727-2.273-1.462.525-1.756 2.475-.539 3.441 5.87 4.662 26.59 21.261 103.166 82.522 9.54 7.63 15.01 19.01 15.01 31.23v199.896c0 1.197 1.045 2.126 2.234 1.986z"/><path d="m335.872 172.95-104-83.2c-8.82-7.06-21.16-7.06-29.98 0l-25.682 20.542c-.707.565-.956 1.54-.586 2.366 6.744 15.086 18.009 26.179 31.275 29.937 1.031.292 2.091-.279 2.452-1.289 1.167-3.26 4.379-5.542 8.098-5.287 4.242.291 7.434 4.022 7.434 8.274v15.448c0 3.954-2.757 7.509-6.659 8.149-4.139.679-8.54-1.82-9.244-7.049-.119-.885-.766-1.593-1.644-1.758-18.408-3.46-34.278-16.741-44.045-35.426-.58-1.109-2.043-1.394-3.02-.612l-62.379 49.905c-5.73 4.58-9.01 11.41-9.01 18.74v221.31c0 1.657 1.343 3 3 3h250c1.657 0 3-1.343 3-3v-221.31c0-7.33-3.28-14.16-9.01-18.74zm-158.99 67.05c17.64 0 32 14.35 32 32s-14.36 32-32 32-32-14.35-32-32 14.359-32 32-32zm80 144c-17.64 0-32-14.35-32-32s14.36-32 32-32 32 14.35 32 32-14.36 32-32 32zm29.66-130.34-128 128c-1.57 1.56-3.61 2.34-5.66 2.34-7.095 0-10.687-8.617-5.66-13.66l128-128c3.13-3.12 8.19-3.12 11.32 0 3.12 3.13 3.12 8.19 0 11.32z"/><path d="m88.882 488c0 13.255 10.745 24 24 24h208c13.255 0 24-10.745 24-24v-21c0-1.657-1.343-3-3-3h-250c-1.657 0-3 1.343-3 3z"/><circle cx="256.882" cy="352" r="16"/><circle cx="176.882" cy="272" r="16"/><path d="m91.882 448h250c1.657 0 3-1.343 3-3v-10c0-1.657-1.343-3-3-3h-250c-1.657 0-3 1.343-3 3v10c0 1.657 1.343 3 3 3z"/><path d="m169.239 95.38c.564-.451.833-1.173.717-1.885-6.71-41.181 17.442-77.495 46.926-77.495 20.55 0 38.118 17.302 44.948 41.556.186.66.696 1.175 1.351 1.378 4.929 1.53 8.264 3.579 13.312 6.761 1.454.917 3.333-.308 3.051-2.003-6.036-36.318-31.84-63.692-62.662-63.692-43.599 0-73.288 52.742-61.37 102.693.342 1.431 2.055 2.027 3.204 1.108z"/></g></svg>